<svg x="0" y="0" width="700" height="350" viewBox="0 0 700 350" xmlns="http://www.w3.org/2000/svg" xmlns:xlink="http://www.w3.org/1999/xlink" xmlns:fi="http://pattern.flaticon.com/"><rect x="0px" y="0px" width="100%" height="100%" opacity="1" fill="#92dcff"/><defs><path d="M139.611,116.931h-10.5V20.96c0-4.135-3.332-6.344-7.467-6.344h-0.746c-4.137,0-8.84,2.209-8.84,6.344v10.709h-9.744    v-0.853c0-3.566-2.891-6.456-6.455-6.456h-1.705c-3.563,0-6.454,2.892-6.454,6.456v0.853H73.083v-0.853    c0-3.566-2.892-6.456-6.456-6.456h-1.706c-3.564,0-6.456,2.892-6.456,6.456v0.853h-2.436v-0.853c0-3.566-2.892-6.456-6.456-6.456    h-1.704c-3.564,0-6.456,2.892-6.456,6.456v0.853h-9.744V20.96c0-4.135-2.458-6.344-6.592-6.344h-0.748    c-4.134,0-9.713,0-9.713,6.344v95.973H6.363c-2.894,0-6.363,0.15-6.363,5.088v0.748c0,2.895,0,6.345,6.363,6.345h133.25    c2.895,0,4.117-3.45,4.117-6.345v-0.748C143.729,119.127,142.506,116.931,139.611,116.931z M112.059,116.931H31.668V99.879h7.308    v0.854c0,3.566,2.892,6.455,6.456,6.455h1.703c3.566,0,6.456-2.893,6.456-6.455v-0.854h2.436v0.854    c0,3.566,2.892,6.455,6.456,6.455h1.703c3.566,0,6.456-2.893,6.456-6.455v-0.854h14.617v0.854c0,3.566,2.892,6.455,6.455,6.455    h1.703c3.565,0,6.455-2.893,6.455-6.455v-0.854h12.183v17.054h0.004V116.931z M112.059,92.571h-12.18V91.72    c0-3.566-2.893-6.457-6.455-6.457h-1.705c-3.564,0-6.457,2.893-6.457,6.457v0.852H70.646V91.72c0-3.566-2.892-6.457-6.456-6.457    h-1.706c-3.564,0-6.456,2.893-6.456,6.457v0.852h-2.436V91.72c0-3.566-2.892-6.457-6.456-6.457H45.43    c-3.564,0-6.456,2.893-6.456,6.457v0.852h-7.308v-24.36h12.18v0.853c0,3.566,2.892,6.455,6.456,6.455h1.703    c3.566,0,6.456-2.891,6.456-6.455v-0.853h14.617v0.853c0,3.566,2.893,6.455,6.456,6.455h1.702c3.566,0,6.455-2.891,6.455-6.455    v-0.853h24.361v24.36L112.059,92.571L112.059,92.571z M112.059,60.902H87.7V60.05c0-3.566-2.894-6.455-6.457-6.455h-1.705    c-3.563,0-6.455,2.892-6.455,6.455v0.853H58.465V60.05c0-3.566-2.892-6.455-6.456-6.455h-1.705c-3.564,0-6.456,2.892-6.456,6.455    v0.853h-12.18V38.977h9.744v0.853c0,3.566,2.892,6.456,6.456,6.456h1.703c3.566,0,6.456-2.892,6.456-6.456v-0.853h2.436v0.853    c0,3.566,2.892,6.456,6.456,6.456h1.703c3.566,0,6.455-2.892,6.455-6.456v-0.853h14.616v0.853c0,3.566,2.894,6.456,6.455,6.456    h1.703c3.566,0,6.457-2.892,6.457-6.456v-0.853h9.744v21.925H112.059z" transform="matrix(0.13914979994297028 0 0 0.13914979994297028 77.5 340)" id="L1_1517"/><path d="M0.65,91.928c1.221,2.701,3.881,4.3,6.665,4.3c1.006,0,2.029-0.209,3.006-0.65l88.917-40.195    c2.688-1.216,4.381-3.925,4.295-6.873c-0.085-2.948-1.934-5.554-4.687-6.609L9.929,7.794C6.17,6.352,1.933,8.23,0.489,12.001    c-1.447,3.769,0.438,7.995,4.207,9.44l72.569,27.834L4.299,82.255C0.62,83.92-1.012,88.249,0.65,91.928z" transform="matrix(0.8396434783935547 0.22498178482055664 -0.22498178482055664 0.8396434783935547 318.064697265625 294.9326171875)" id="L1_1518"/><g transform="matrix(0.078125 0 0 0.078125 155 330)" id="L1_1519"><path d="M256,512C114.839,512,0,397.156,0,256S114.839,0,256,0s256,114.844,256,256S397.161,512,256,512z" fill="#ff5023"/><path d="M512,256C512,114.844,397.161,0,256,0v512C397.161,512,512,397.156,512,256z" fill="#cd2a00"/><path d="M308.25,394.612c-3.17,0-6.377-0.903-9.214-2.783L113.491,268.747  c-4.664-3.098-7.469-8.317-7.469-13.916s2.805-10.818,7.469-13.916l185.546-123.082c7.681-5.088,18.059-3,23.146,4.686  c5.099,7.686,3,18.047-4.686,23.146L152.929,254.831l164.568,109.165c7.686,5.099,9.785,15.46,4.686,23.146  C318.97,391.991,313.659,394.612,308.25,394.612z" fill="#ffffff"/><g><path d="M308.25,394.612c5.408,0,10.72-2.621,13.933-7.469c5.099-7.686,3-18.047-4.686-23.146   l-61.182-40.585v40.079l42.721,28.338C301.874,393.709,305.081,394.612,308.25,394.612z" fill="#ffe6b3"/><path d="M299.036,117.833l-42.721,28.338v40.079l61.182-40.585c7.686-5.099,9.785-15.46,4.686-23.146   C317.095,114.833,306.717,112.746,299.036,117.833z" fill="#ffe6b3"/></g></g><path d="M14 7h-5v-5h-3v5h-5v3h5v5h3v-5h5z" transform="matrix(4.225925445556641 -1.1323332786560059 1.1323332786560059 4.225925445556641 131.49322509765625 149.75962829589844)" fill="#444444" id="L1_1520"/><g transform="matrix(0.10610754787921906 0 0 0.10610754787921906 252.5 340)" id="L1_1521"><path d="M153.762,29.486c-13.516-30.46-42.95,4.773-52.217,18.317C75.396,86.029,47.829,123.048,18.95,159.307   c-0.995,1.25-1.091,2.647-0.661,3.812c-0.137,0.711-0.088,1.473,0.305,2.223c18.331,35.085,63.401-18.302,75.205-32.752   c14.641-17.922,27.607-37.227,39.469-57.077c5.077-8.497,20.652-28.634,17.592-39.523C153.281,35.431,154.86,31.965,153.762,29.486   z M30.872,157.699c0.089,0.387,0.23,0.748,0.431,1.089c-1.471,1.663-2.938,3.322-4.376,4.992c-0.394-0.285-0.786-0.573-1.172-0.9   C27.49,161.203,29.171,159.434,30.872,157.699z"/><path d="M63.38,27.532C55.4,11.749,35.383,6.932,21.56,15.862c-21.751,7.87-31.11,45.964-8.589,58.618   C42.025,90.806,78.45,57.335,63.38,27.532z M21.088,53.454c-6.622-9.25,0.002-17.598,8.408-21.676   c1.691-0.82,1.242-3.556-0.518-3.963c-0.489-0.113-0.958-0.16-1.437-0.232C38.651,25.64,54,39.144,48.097,49.742   C43.253,58.436,27.27,62.087,21.088,53.454z"/><path d="M139.258,100.67c-16.028,7.177-25.495,27.306-23.966,44.25c-0.644,3.72-0.782,7.366-0.296,10.785   c2.338,16.416,21.484,20.799,35.116,21.344c18.879,0.755,32.084-13.73,36.735-30.821   C195.182,115.603,170.621,86.627,139.258,100.67z M131.394,137.128c4.59-9.153,13.382-17.812,22.525-21.393   c14.218-5.567,17.795,11.596,17.594,22.357C171.111,159.562,127.812,157.789,131.394,137.128z"/></g><g transform="matrix(0.07792425155639648 0 0 0.07792425155639648 242.5 67.5)" id="L1_1522"><path d="M443.807,42.775 409.586,17.109 409.586,17.109 407.446,17.109 88.761,464.126 122.982,489.792 122.982,489.792      125.122,489.792z"/><path d="M180.731,256.659c2.138,0,2.138,0,4.278,0l40.638-55.609c-12.832,6.416-27.805,12.832-44.915,12.832     c-47.055,0-85.553-38.499-85.553-85.553s38.499-85.553,85.553-85.553s85.553,38.499,85.553,85.553c0,6.416,0,12.832-2.138,19.25     l40.638-55.609C287.675,38.499,238.482,0,180.733,0c-70.581,0-128.33,57.749-128.33,128.33S110.149,256.659,180.731,256.659z"/><path d="M343.281,256.659l-32.082,44.915c6.416-2.138,12.832-2.138,19.25-2.138c47.055,0,85.553,38.499,85.553,85.553     s-38.499,85.553-85.553,85.553c-44.915,0-81.275-34.221-83.415-76.997l-32.083,44.915c19.25,44.915,64.165,74.859,117.636,74.859     c70.581,0,128.33-57.749,128.33-128.33C458.779,318.685,407.446,263.075,343.281,256.659L343.281,256.659z"/></g><g transform="matrix(0.078125 0 0 0.078125 67.5 67.5)" id="L1_1523"><path d="M404.191,234.459c-67.583,0-123.502,53.403-148.191,81.424c-24.688-28.02-80.608-81.424-148.189-81.424     C48.364,234.459,0,282.823,0,342.269c0,59.446,48.364,107.809,107.81,107.809c67.583,0,123.501-53.403,148.19-81.422     c24.688,28.02,80.607,81.422,148.191,81.422c59.447,0,107.809-48.363,107.809-107.809S463.637,234.459,404.191,234.459z      M201.902,375.11c-40.395,34.365-73.463,41.578-94.092,41.578c-41.035,0-74.419-33.384-74.419-74.418     s33.385-74.419,74.419-74.419c57.407,0,107.928,52.241,126.805,74.443C227.661,350.493,216.378,362.794,201.902,375.11z      M404.191,416.687c-57.391,0-107.896-52.205-126.786-74.418c18.889-22.213,69.396-74.419,126.786-74.419     c41.035,0,74.418,33.385,74.418,74.419C478.609,383.304,445.225,416.687,404.191,416.687z"/><path d="M219.701,200.156c11.221,8.678,26.562,18.651,27.209,19.072l9.09,5.9l9.089-5.9c0.648-0.421,15.99-10.394,27.209-19.072     c25.716-19.891,55.235-46.813,55.235-78.711c0-32.82-26.702-59.523-59.523-59.523c-11.441,0-22.535,3.309-32.011,9.354     c-9.476-6.046-20.57-9.354-32.011-9.354c-32.821,0-59.523,26.702-59.523,59.523C164.465,153.342,193.985,180.265,219.701,200.156     z M223.989,95.314c7.45,0,14.57,3.202,19.535,8.787L256,118.132l12.476-14.032c4.964-5.584,12.083-8.786,19.534-8.786     c14.408,0,26.132,11.723,26.132,26.132c0,13.007-14.222,30.602-42.272,52.297c-4.94,3.821-10.972,8.055-15.871,11.399     c-4.897-3.344-10.93-7.579-15.87-11.399c-28.05-21.697-42.272-39.293-42.272-52.297     C197.857,107.036,209.579,95.314,223.989,95.314z"/></g><g transform="matrix(0.13671875 0 0 0.13671875 315 140)" id="L1_1524"><path d="M512,256.006C512,397.402,397.394,512.004,256.004,512C114.606,512.004,0,397.402,0,256.006  C-0.007,114.61,114.606,0,256.004,0C397.394,0,512,114.614,512,256.006z" fill="#ffcd54"/><path d="M511.936,258.555c-0.116-0.116-0.234-0.234-0.35-0.35c-0.306-0.308-128.129-128.131-128.436-128.436  C350.65,97.035,305.661,76.717,256,76.717c-98.855,0-179.283,80.428-179.283,179.283c0,49.659,20.316,94.646,53.049,127.146  c0.306,0.308,0.612,0.614,0.921,0.921c0.306,0.308,127.209,127.211,127.517,127.516c0.117,0.118,0.236,0.236,0.353,0.353  C397.913,510.572,510.57,397.916,511.936,258.555z" fill="#f4ba41"/><g><path d="M256,76.717c-98.855,0-179.283,80.428-179.283,179.283S157.145,435.283,256,435.283   S435.283,354.855,435.283,256S354.855,76.717,256,76.717z M256,420.342c-90.619,0-164.342-73.724-164.342-164.342   S165.381,91.658,256,91.658S420.342,165.381,420.342,256S346.619,420.342,256,420.342z" fill="#f4f6f9"/><path d="M345.642,248.53H263.47v-82.172c0-4.126-3.341-7.47-7.47-7.47c-4.129,0-7.47,3.345-7.47,7.47v82.172   h-82.172c-4.129,0-7.47,3.345-7.47,7.47c0,4.126,3.341,7.47,7.47,7.47h82.172v82.172c0,4.126,3.341,7.47,7.47,7.47   c4.129,0,7.47-3.345,7.47-7.47V263.47h82.172c4.129,0,7.47-3.345,7.47-7.47C353.111,251.874,349.771,248.53,345.642,248.53z" fill="#f4f6f9"/></g></g><path d="M378.604,0c-4.583,0-8.646,2.917-10.104,7.261l-158,468.896L99.729,293.146  c-1.927-3.198-5.396-5.146-9.125-5.146H5.271v21.333h79.323l119.552,197.521c1.948,3.219,5.417,5.146,9.125,5.146  c0.385,0,0.771-0.021,1.167-0.062c4.125-0.458,7.615-3.261,8.938-7.198L386.271,21.333h120.458V0H378.604z" transform="matrix(0.17578125 0 0 0.17578125 217.5 217.5)" fill="#314e55" id="L1_1525"/><g transform="matrix(0.09765625 0 0 0.09765625 62.5 237.5)" id="L1_1526"><path d="M255.832,32.021c123.697,0.096,223.907,100.45,223.811,224.147s-100.45,223.907-224.147,223.811  C131.863,479.883,31.685,379.633,31.685,256C31.869,132.311,132.143,32.117,255.832,32.021 M255.832,0  C114.443,0.096-0.096,114.779,0,256.168S114.779,512.096,256.168,512C397.485,511.904,512,397.317,512,256  C511.952,114.571,397.261-0.048,255.832,0z" fill="#cccccc"/><g><rect x="112px" y="227px" width="285px" height="56px" fill="#e21b1b"/><rect x="227px" y="113px" width="56px" height="285px" fill="#e21b1b"/></g></g></defs><g fi:class="KUsePattern"><pattern id="pattern_L1_1517" width="350" height="350" patternUnits="userSpaceOnUse"><use xlink:href="#L1_1517" x="-350" y="-350"/><use xlink:href="#L1_1517" x="0" y="-350"/><use xlink:href="#L1_1517" x="350" y="-350"/><use xlink:href="#L1_1517" x="-350" y="0"/><use xlink:href="#L1_1517" x="0" y="0"/><use xlink:href="#L1_1517" x="350" y="0"/><use xlink:href="#L1_1517" x="-350" y="350"/><use xlink:href="#L1_1517" x="0" y="350"/><use xlink:href="#L1_1517" x="350" y="350"/></pattern><rect x="0" y="0" width="100%" height="100%" fill="url(#pattern_L1_1517)"/></g><g fi:class="KUsePattern"><pattern id="pattern_L1_1518" width="350" height="350" patternUnits="userSpaceOnUse"><use xlink:href="#L1_1518" x="-350" y="-350"/><use xlink:href="#L1_1518" x="0" y="-350"/><use xlink:href="#L1_1518" x="350" y="-350"/><use xlink:href="#L1_1518" x="-350" y="0"/><use xlink:href="#L1_1518" x="0" y="0"/><use xlink:href="#L1_1518" x="350" y="0"/><use xlink:href="#L1_1518" x="-350" y="350"/><use xlink:href="#L1_1518" x="0" y="350"/><use xlink:href="#L1_1518" x="350" y="350"/></pattern><rect x="0" y="0" width="100%" height="100%" fill="url(#pattern_L1_1518)"/></g><g fi:class="KUsePattern"><pattern id="pattern_L1_1519" width="350" height="350" patternUnits="userSpaceOnUse"><use xlink:href="#L1_1519" x="-350" y="-350"/><use xlink:href="#L1_1519" x="0" y="-350"/><use xlink:href="#L1_1519" x="350" y="-350"/><use xlink:href="#L1_1519" x="-350" y="0"/><use xlink:href="#L1_1519" x="0" y="0"/><use xlink:href="#L1_1519" x="350" y="0"/><use xlink:href="#L1_1519" x="-350" y="350"/><use xlink:href="#L1_1519" x="0" y="350"/><use xlink:href="#L1_1519" x="350" y="350"/></pattern><rect x="0" y="0" width="100%" height="100%" fill="url(#pattern_L1_1519)"/></g><g fi:class="KUsePattern"><pattern id="pattern_L1_1520" width="350" height="350" patternUnits="userSpaceOnUse"><use xlink:href="#L1_1520" x="-350" y="-350"/><use xlink:href="#L1_1520" x="0" y="-350"/><use xlink:href="#L1_1520" x="350" y="-350"/><use xlink:href="#L1_1520" x="-350" y="0"/><use xlink:href="#L1_1520" x="0" y="0"/><use xlink:href="#L1_1520" x="350" y="0"/><use xlink:href="#L1_1520" x="-350" y="350"/><use xlink:href="#L1_1520" x="0" y="350"/><use xlink:href="#L1_1520" x="350" y="350"/></pattern><rect x="0" y="0" width="100%" height="100%" fill="url(#pattern_L1_1520)"/></g><g fi:class="KUsePattern"><pattern id="pattern_L1_1521" width="350" height="350" patternUnits="userSpaceOnUse"><use xlink:href="#L1_1521" x="-350" y="-350"/><use xlink:href="#L1_1521" x="0" y="-350"/><use xlink:href="#L1_1521" x="350" y="-350"/><use xlink:href="#L1_1521" x="-350" y="0"/><use xlink:href="#L1_1521" x="0" y="0"/><use xlink:href="#L1_1521" x="350" y="0"/><use xlink:href="#L1_1521" x="-350" y="350"/><use xlink:href="#L1_1521" x="0" y="350"/><use xlink:href="#L1_1521" x="350" y="350"/></pattern><rect x="0" y="0" width="100%" height="100%" fill="url(#pattern_L1_1521)"/></g><g fi:class="KUsePattern"><pattern id="pattern_L1_1522" width="350" height="350" patternUnits="userSpaceOnUse"><use xlink:href="#L1_1522" x="-350" y="-350"/><use xlink:href="#L1_1522" x="0" y="-350"/><use xlink:href="#L1_1522" x="350" y="-350"/><use xlink:href="#L1_1522" x="-350" y="0"/><use xlink:href="#L1_1522" x="0" y="0"/><use xlink:href="#L1_1522" x="350" y="0"/><use xlink:href="#L1_1522" x="-350" y="350"/><use xlink:href="#L1_1522" x="0" y="350"/><use xlink:href="#L1_1522" x="350" y="350"/></pattern><rect x="0" y="0" width="100%" height="100%" fill="url(#pattern_L1_1522)"/></g><g fi:class="KUsePattern"><pattern id="pattern_L1_1523" width="350" height="350" patternUnits="userSpaceOnUse"><use xlink:href="#L1_1523" x="-350" y="-350"/><use xlink:href="#L1_1523" x="0" y="-350"/><use xlink:href="#L1_1523" x="350" y="-350"/><use xlink:href="#L1_1523" x="-350" y="0"/><use xlink:href="#L1_1523" x="0" y="0"/><use xlink:href="#L1_1523" x="350" y="0"/><use xlink:href="#L1_1523" x="-350" y="350"/><use xlink:href="#L1_1523" x="0" y="350"/><use xlink:href="#L1_1523" x="350" y="350"/></pattern><rect x="0" y="0" width="100%" height="100%" fill="url(#pattern_L1_1523)"/></g><g fi:class="KUsePattern"><pattern id="pattern_L1_1524" width="350" height="350" patternUnits="userSpaceOnUse"><use xlink:href="#L1_1524" x="-350" y="-350"/><use xlink:href="#L1_1524" x="0" y="-350"/><use xlink:href="#L1_1524" x="350" y="-350"/><use xlink:href="#L1_1524" x="-350" y="0"/><use xlink:href="#L1_1524" x="0" y="0"/><use xlink:href="#L1_1524" x="350" y="0"/><use xlink:href="#L1_1524" x="-350" y="350"/><use xlink:href="#L1_1524" x="0" y="350"/><use xlink:href="#L1_1524" x="350" y="350"/></pattern><rect x="0" y="0" width="100%" height="100%" fill="url(#pattern_L1_1524)"/></g><g fi:class="KUsePattern"><pattern id="pattern_L1_1525" width="350" height="350" patternUnits="userSpaceOnUse"><use xlink:href="#L1_1525" x="-350" y="-350"/><use xlink:href="#L1_1525" x="0" y="-350"/><use xlink:href="#L1_1525" x="350" y="-350"/><use xlink:href="#L1_1525" x="-350" y="0"/><use xlink:href="#L1_1525" x="0" y="0"/><use xlink:href="#L1_1525" x="350" y="0"/><use xlink:href="#L1_1525" x="-350" y="350"/><use xlink:href="#L1_1525" x="0" y="350"/><use xlink:href="#L1_1525" x="350" y="350"/></pattern><rect x="0" y="0" width="100%" height="100%" fill="url(#pattern_L1_1525)"/></g><g fi:class="KUsePattern"><pattern id="pattern_L1_1526" width="350" height="350" patternUnits="userSpaceOnUse"><use xlink:href="#L1_1526" x="-350" y="-350"/><use xlink:href="#L1_1526" x="0" y="-350"/><use xlink:href="#L1_1526" x="350" y="-350"/><use xlink:href="#L1_1526" x="-350" y="0"/><use xlink:href="#L1_1526" x="0" y="0"/><use xlink:href="#L1_1526" x="350" y="0"/><use xlink:href="#L1_1526" x="-350" y="350"/><use xlink:href="#L1_1526" x="0" y="350"/><use xlink:href="#L1_1526" x="350" y="350"/></pattern><rect x="0" y="0" width="100%" height="100%" fill="url(#pattern_L1_1526)"/></g></svg>