<svg x="0" y="0" width="1400" height="700" viewBox="0 0 1400 700" xmlns="http://www.w3.org/2000/svg" xmlns:xlink="http://www.w3.org/1999/xlink" xmlns:fi="http://pattern.flaticon.com/"><rect x="0px" y="0px" width="100%" height="100%" opacity="1" fill="#ffffff"/><defs><g transform="matrix(0.16979165375232697 0.04549553617835045 -0.04549553617835045 0.16979165375232697 -31.819805145263672 -55.113521575927734)" id="L1_1046"><path d="M489.739,512H22.261c-9.217,0-16.696-7.473-16.696-16.696V16.696C5.565,7.473,13.044,0,22.261,0  h467.478c9.217,0,16.696,7.473,16.696,16.696v478.609C506.435,504.527,498.956,512,489.739,512z" fill="#00d7df"/><path d="M489.739,0H256v512h233.739c9.217,0,16.696-7.473,16.696-16.696V16.696  C506.435,7.473,498.956,0,489.739,0z" fill="#00b6bd"/><g><path d="M422.957,244.87H272.696V94.609c0-9.223-7.479-16.696-16.696-16.696s-16.696,7.473-16.696,16.696   V244.87H89.043c-9.217,0-16.696,7.473-16.696,16.696c0,9.223,7.479,16.696,16.696,16.696h150.261v150.261   c0,9.223,7.479,16.696,16.696,16.696s16.696-7.473,16.696-16.696V278.261h150.261c9.217,0,16.696-7.473,16.696-16.696   C439.652,252.343,432.174,244.87,422.957,244.87z" fill="#ffffff"/><path d="M89.043,311.652c-9.217,0-16.696,7.473-16.696,16.696s7.479,16.696,16.696,16.696   c46.032,0,83.478,37.446,83.478,83.478c0,9.223,7.479,16.696,16.696,16.696c9.217,0,16.696-7.473,16.696-16.696   C205.913,364.081,153.489,311.652,89.043,311.652z" fill="#ffffff"/><path d="M139.13,130.114v36.843c0,9.223,7.479,16.696,16.696,16.696s16.696-7.473,16.696-16.696v-36.843   l33.131-28.397c7-6,7.805-16.538,1.804-23.538c-6-6.989-16.533-7.82-23.543-1.81l-28.088,24.076L127.74,76.369   c-7.011-6.016-17.533-5.196-23.543,1.81c-6,7-5.196,17.538,1.804,23.538L139.13,130.114z" fill="#ffffff"/></g><g><path d="M272.696,428.522V278.261h150.261c9.217,0,16.696-7.473,16.696-16.696   c0-9.223-7.479-16.696-16.696-16.696H272.696V94.609c0-9.223-7.479-16.696-16.696-16.696v367.304   C265.217,445.217,272.696,437.744,272.696,428.522z" fill="#ffe6b3"/><path d="M422.957,211.478c9.217,0,16.696-7.473,16.696-16.696c0-9.223-7.479-16.696-16.696-16.696   c-46.032,0-83.478-37.446-83.478-83.478c0-9.223-7.479-16.696-16.696-16.696s-16.696,7.473-16.696,16.696   C306.087,159.049,358.511,211.478,422.957,211.478z" fill="#ffe6b3"/><path d="M429.195,322.109c-6.521-6.521-17.087-6.521-23.609,0L384,343.696l-21.587-21.587   c-6.521-6.521-17.087-6.521-23.609,0c-6.521,6.516-6.521,17.092,0,23.609l21.587,21.587l-21.587,21.587   c-6.521,6.516-6.521,17.092,0,23.609c3.261,3.261,7.533,4.892,11.804,4.892s8.544-1.631,11.804-4.892L384,390.913l21.587,21.587   c3.261,3.261,7.533,4.892,11.804,4.892s8.544-1.631,11.804-4.892c6.521-6.516,6.521-17.092,0-23.609l-21.586-21.587l21.587-21.587   C435.718,339.201,435.718,328.625,429.195,322.109z" fill="#ffe6b3"/></g></g><g transform="matrix(0.0390625 0 0 0.0390625 77.5 340)" id="L1_1047"><path d="M256,512C114.839,512,0,397.161,0,256S114.839,0,256,0s256,114.839,256,256S397.161,512,256,512z" fill="#ffcd00"/><path d="M512,256C512,114.839,397.161,0,256,0v512C397.161,512,512,397.161,512,256z" fill="#ffa733"/><path d="M372.895,256c0-9.225-7.475-16.699-16.699-16.699H140.785c7.757-38.067,41.491-66.797,81.816-66.797  h133.594c9.225,0,16.699-7.475,16.699-16.699c0-9.225-7.475-16.699-16.699-16.699H222.601c-64.455,0-116.895,52.44-116.895,116.895  s52.44,116.895,116.895,116.895h133.594c9.225,0,16.699-7.475,16.699-16.699c0-9.225-7.475-16.699-16.699-16.699H222.601  c-40.325,0-74.059-28.731-81.816-66.797h215.411C365.42,272.699,372.895,265.225,372.895,256z" fill="#ffffff"/><g><path d="M372.895,256c0-9.225-7.475-16.699-16.699-16.699H256v33.399h100.196   C365.42,272.699,372.895,265.225,372.895,256z" fill="#ffe6b3"/><path d="M372.895,356.196c0-9.225-7.475-16.699-16.699-16.699H256v33.399h100.196   C365.42,372.895,372.895,365.42,372.895,356.196z" fill="#ffe6b3"/><path d="M356.196,139.105H256v33.399h100.196c9.225,0,16.699-7.475,16.699-16.699   C372.895,146.58,365.42,139.105,356.196,139.105z" fill="#ffe6b3"/></g></g><g transform="matrix(0.078125 0 0 0.078125 155 330)" id="L1_1048"><path d="M256,512C114.839,512,0,397.161,0,256S114.839,0,256,0s256,114.839,256,256S397.161,512,256,512z" fill="#00d7df"/><path d="M512,256C512,114.839,397.161,0,256,0v512C397.161,512,512,397.161,512,256z" fill="#00b6bd"/><path d="M389.594,283.832H259.43l29.688-66.797h100.475c9.225,0,16.699-7.475,16.699-16.699  c0-9.225-7.475-16.699-16.699-16.699H303.96l34.094-76.712c3.745-8.431-0.049-18.298-8.474-22.043  c-8.425-3.734-18.292,0.06-22.043,8.474l-40.125,90.281H122.406c-9.225,0-16.699,7.475-16.699,16.699  c0,9.225,7.475,16.699,16.699,16.699H252.57l-29.688,66.797H122.406c-9.225,0-16.699,7.475-16.699,16.699  c0,9.225,7.475,16.699,16.699,16.699h85.633l-34.094,76.712c-3.745,8.431,0.049,18.298,8.474,22.043  c2.207,0.979,4.507,1.446,6.773,1.446c6.398,0,12.502-3.702,15.27-9.921l40.125-90.281h145.008c9.225,0,16.699-7.475,16.699-16.699  C406.294,291.307,398.819,283.832,389.594,283.832z" fill="#ffffff"/><path d="M389.594,217.035c9.225,0,16.699-7.475,16.699-16.699c0-9.225-7.475-16.699-16.699-16.699h-85.633  l34.094-76.712c3.745-8.431-0.049-18.298-8.474-22.043c-8.425-3.734-18.292,0.06-22.043,8.474l-40.125,90.281H256v133.594h133.594  c9.225,0,16.699-7.475,16.699-16.699c0-9.225-7.475-16.699-16.699-16.699H259.43l29.688-66.797L389.594,217.035L389.594,217.035z" fill="#ffe6b3"/></g><g transform="matrix(0.0390625 0 0 0.0390625 252.5 340)" id="L1_1049"><path d="M256,512C114.839,512,0,397.161,0,256S114.839,0,256,0s256,114.839,256,256S397.161,512,256,512z" fill="#00d7df"/><path d="M512,256C512,114.839,397.161,0,256,0v512C397.161,512,512,397.161,512,256z" fill="#00b6bd"/><path d="M362.273,149.727c-6.523-6.523-17.091-6.523-23.614,0L149.727,338.659  c-6.523,6.517-6.523,17.096,0,23.614c3.262,3.262,7.535,4.893,11.806,4.893c4.272,0,8.546-1.631,11.806-4.893l188.932-188.932  C368.796,166.822,368.796,156.245,362.273,149.727z" fill="#ffffff"/><g><path d="M338.659,149.727L256,232.386v47.228l106.273-106.273c6.523-6.517,6.523-17.096,0-23.614   C355.75,143.204,345.182,143.204,338.659,149.727z" fill="#ffeb99"/><path d="M389.594,328.364H278.266c-9.225,0-16.699,7.475-16.699,16.699s7.475,16.699,16.699,16.699h111.329   c9.225,0,16.699-7.475,16.699-16.699S398.819,328.364,389.594,328.364z" fill="#ffeb99"/></g><path d="M161.371,222.601c0,9.225,7.475,16.699,16.699,16.699c9.225,0,16.699-7.475,16.699-16.699v-38.965  h38.965c9.225,0,16.699-7.475,16.699-16.699s-7.475-16.699-16.699-16.699h-38.965v-38.965c0-9.225-7.475-16.699-16.699-16.699  c-9.225,0-16.699,7.475-16.699,16.699v38.965h-38.965c-9.225,0-16.699,7.475-16.699,16.699s7.475,16.699,16.699,16.699h38.965  V222.601z" fill="#ffffff"/></g><g transform="matrix(0.07812514901161194 0 0 0.07812514901161194 67.5 67.5)" id="L1_1050"><g><path d="M495.304,459.13H16.695c-6.749,0-12.837-4.065-15.423-10.305s-1.152-13.424,3.62-18.196   l372.87-372.87c6.521-6.521,17.087-6.521,23.609,0c6.521,6.516,6.521,17.092,0,23.609L57,425.739h438.304   c9.217,0,16.696,7.473,16.696,16.696C511.999,451.657,504.521,459.13,495.304,459.13z" fill="#aa6100"/><path d="M239.304,459.13H16.695c-6.749,0-12.837-4.065-15.423-10.305s-1.152-13.424,3.62-18.196   l157.336-157.332c6.521-6.521,17.087-6.521,23.609,0c45.25,45.245,70.163,105.311,70.163,169.137   C255.999,451.657,248.521,459.13,239.304,459.13z M57,425.739h164.945c-3.456-43.114-20.24-83.571-48.381-116.56L57,425.739z" fill="#aa6100"/></g><g><path d="M495.304,425.739H57l344.37-344.37c6.521-6.516,6.521-17.092,0-23.609l0,0L16.695,442.435h495.304   C511.999,433.212,504.521,425.739,495.304,425.739z" fill="#884e00"/><path d="M16.695,442.435h222.609c0-61.372-24.964-117.025-65.274-157.334L16.695,442.435z M57,425.739   l116.566-116.56c28.141,32.99,44.924,73.445,48.381,116.56H57z" fill="#884e00"/></g></g><g transform="matrix(0.078125 0 0 0.078125 242.5 67.5)" id="L1_1051"><path d="M256,512C114.839,512,0,397.156,0,256S114.839,0,256,0s256,114.844,256,256S397.161,512,256,512z" fill="#ff5023"/><path d="M512,256C512,114.844,397.161,0,256,0v512C397.161,512,512,397.156,512,256z" fill="#cd2a00"/><path d="M204.752,394.612c-5.408,0-10.72-2.621-13.933-7.469c-5.099-7.686-3-18.047,4.686-23.146  l164.568-109.165L195.505,145.666c-7.686-5.099-9.785-15.46-4.686-23.146c5.099-7.697,15.455-9.785,23.146-4.686l185.546,123.082  c4.664,3.098,7.469,8.317,7.469,13.916s-2.805,10.818-7.469,13.916L213.966,391.829  C211.128,393.709,207.921,394.612,204.752,394.612z" fill="#ffffff"/><path d="M399.511,240.915l-142.824-94.744v40.079l103.386,68.581l-103.386,68.581v40.079l142.825-94.744  c4.664-3.098,7.469-8.317,7.469-13.916S404.175,244.013,399.511,240.915z" fill="#ffe6b3"/></g><g transform="matrix(0.13671821355819702 0 0 0.13671821355819702 315 140)" id="L1_1052"><path d="M290.911,300.178h-0.098c-9.216,0-18.465-2.69-26.725-7.781l-1.642-1.011  c-2.391-1.472-4.488-2.799-6.445-3.798c-2.054,1.059-4.151,2.391-6.369,3.761l-1.642,1.022  c-18.715,11.504-40.886,10.059-60.286-3.712c-11.205-8.01-21.791-20.019-31.497-35.725c-7.542-12.26-14.151-26.23-18.607-39.37  c-5.88-17.291-8.858-33.974-8.858-49.593c-0.055-29.725,11.042-56.422,31.235-75.159c15.02-13.923,35.659-21.649,58.113-21.77  c4.249,0,8.271,0.43,12.021,1.272c9.738,2.19,17.542,6.304,22.703,9.026c1.239,0.652,2.304,1.076,3.206,1.277  c0.967-0.207,1.847-0.592,2.141-0.745c6.413-3.374,14.042-7.38,23.704-9.559c3.772-0.842,7.793-1.272,11.955-1.272  c22.552,0.119,43.191,7.847,58.2,21.764c20.215,18.754,31.301,45.457,31.235,75.197c0,15.612-2.978,32.3-8.847,49.57  c-4.477,13.146-11.086,27.111-18.607,39.338c-9.716,15.738-20.302,27.742-31.463,35.719  C313.572,296.292,302.334,300.172,290.911,300.178z" fill="#ff5023"/><path d="M293.823,67.042c-4.162,0-8.184,0.43-11.955,1.272c-9.662,2.179-17.291,6.184-23.704,9.559  c-0.29,0.15-1.162,0.53-2.119,0.739v209.002c1.945,0.997,4.027,2.31,6.401,3.773l1.642,1.011c8.26,5.092,17.508,7.781,26.725,7.781  h0.098c11.423-0.006,22.66-3.885,33.431-11.548c11.161-7.977,21.747-19.981,31.463-35.719c7.521-12.226,14.128-26.192,18.607-39.338  c5.868-17.27,8.847-33.958,8.847-49.57c0.066-29.741-11.02-56.445-31.235-75.197C337.014,74.89,316.375,67.162,293.823,67.042z" fill="#cd2a00"/><path d="M256.045,55.706c0,0-0.154-1.892,0.056-4.727c0.178-2.865,0.733-6.656,1.83-10.777  c2.205-8.229,7.192-17.152,14.137-24.12c6.941-6.97,15.846-11.977,24.087-14.168c4.123-1.094,7.924-1.639,10.796-1.811  c2.839-0.204,4.74-0.042,4.74-0.042s0.161,1.9-0.042,4.739c-0.171,2.872-0.718,6.674-1.811,10.797  c-2.192,8.241-7.199,17.146-14.17,24.088c-6.967,6.943-15.891,11.932-24.119,14.136c-4.12,1.096-7.912,1.652-10.777,1.83  C257.938,55.86,256.045,55.706,256.045,55.706z" fill="#61b325"/><path d="M334.624,416.73c-6.521-6.521-17.085-6.521-23.606,0l-38.279,38.279V350.629  c0-9.222-7.478-16.694-16.694-16.694s-16.694,7.472-16.694,16.694v104.379l-38.279-38.279c-6.521-6.521-17.085-6.521-23.606,0  c-6.521,6.515-6.521,17.09,0,23.606l66.765,66.765c1.55,1.552,3.41,2.788,5.471,3.637c0.081,0.032,0.167,0.045,0.25,0.078  c1.892,0.743,3.937,1.186,6.092,1.186s4.2-0.443,6.092-1.186c0.082-0.032,0.168-0.045,0.25-0.078  c2.061-0.849,3.921-2.084,5.471-3.637l66.765-66.765C341.144,433.82,341.144,423.245,334.624,416.73z" fill="#aa6100"/><path d="M262.137,510.815c0.082-0.032,0.168-0.045,0.25-0.078c2.061-0.849,3.921-2.084,5.471-3.637  l66.765-66.765c6.521-6.515,6.521-17.09,0-23.606c-6.521-6.521-17.085-6.521-23.606,0l-38.279,38.279V350.629  c0-9.222-7.478-16.694-16.694-16.694v178.066C258.2,512.001,260.247,511.558,262.137,510.815z" fill="#884e00"/></g><g transform="matrix(0.09765625 0 0 0.09765625 62.5 237.5)" id="L1_1053"><path d="M512,255.983C512,115.184,397.569,0,256.032,0c-0.011,0-0.021,0-0.032,0c-0.006,0-0.012,0-0.018,0  C115.198,0,0,114.419,0,255.968c0,0.011,0,0.021,0,0.032c0,0.006,0,0.012,0,0.018C0,396.797,114.414,512,255.968,512  c0.011,0,0.021,0,0.032,0c0.006,0,0.012,0,0.018,0C396.811,512,512,397.571,512,256.031c0-0.01,0-0.021,0-0.031  C512,255.994,512,255.989,512,255.983z" fill="#00d7df"/><path d="M256.018,512C396.811,512,512,397.571,512,256.031c0-0.01,0-0.021,0-0.031c0-0.006,0-0.011,0-0.017  C512,115.184,397.569,0,256.032,0c-0.011,0-0.021,0-0.032,0v512C256.006,512,256.012,512,256.018,512z" fill="#00b6bd"/><path d="M512,255.949c0-77.833-122.644-133.504-256-133.514C129.79,122.441,0,174.854,0,255.981  c0,0.052,0,0.023,0,0.071c0,92.812,157.98,133.505,256,133.513c127.117-0.007,256-52.853,256-133.547  C512,255.973,512,255.989,512,255.949z" fill="#00f6ff"/><path d="M256,122.435v267.13c127.117-0.007,256-52.853,256-133.547c0-0.006,0-0.011,0-0.018  c0-0.006,0-0.011,0-0.017c0-0.023-0.001-0.048-0.001-0.071C511.96,178.099,389.335,122.445,256,122.435z" fill="#00d7df"/></g><g transform="matrix(0.17578125 0 0 0.17578125 217.5 217.5)" id="L1_1054"><path d="M489.739,512H22.261c-9.217,0-16.696-7.473-16.696-16.696V16.696C5.565,7.473,13.044,0,22.261,0  h467.478c9.217,0,16.696,7.473,16.696,16.696v478.609C506.435,504.527,498.956,512,489.739,512z" fill="#00d7df"/><path d="M489.739,0H256v512h233.739c9.217,0,16.696-7.473,16.696-16.696V16.696  C506.435,7.473,498.956,0,489.739,0z" fill="#00b6bd"/><g><path d="M436.815,385.642l-164.119-94.756V83.478c0-9.223-7.479-16.696-16.696-16.696   s-16.696,7.473-16.696,16.696v207.407L75.13,385.668c-7.989,4.609-10.717,14.82-6.108,22.804c3.086,5.358,8.706,8.353,14.467,8.353   c2.837-0.006,5.707-0.722,8.337-2.245L256,319.799l164.119,94.756c7.978,4.609,18.196,1.891,22.804-6.108   C447.533,400.462,444.804,390.25,436.815,385.642z" fill="#ffffff"/><path d="M89.043,256h15.348l-27.153,27.153c-4.772,4.772-6.206,11.956-3.62,18.196   s8.675,10.303,15.425,10.303h55.652c9.217,0,16.696-7.473,16.696-16.696s-7.479-16.696-16.696-16.696h-15.348l27.153-27.153   c4.772-4.772,6.206-11.956,3.62-18.196c-2.587-6.24-8.675-10.303-15.425-10.303H89.043c-9.217,0-16.696,7.473-16.696,16.696   S79.826,256,89.043,256z" fill="#ffffff"/></g><g><path d="M420.119,414.554c7.978,4.609,18.196,1.891,22.804-6.108c4.609-7.984,1.88-18.196-6.108-22.804   l-164.119-94.756V83.478c0-9.223-7.479-16.696-16.696-16.696v253.016L420.119,414.554z" fill="#ffe6b3"/><path d="M429.87,278.261l10.457-10.457c6.521-6.516,6.521-17.092,0-23.609   c-6.521-6.521-17.087-6.521-23.609,0l-10.457,10.457l-10.457-10.457c-6.521-6.521-17.087-6.521-23.609,0   c-6.521,6.516-6.521,17.092,0,23.609l10.457,10.457l-10.457,10.457c-6.521,6.516-6.521,17.092,0,23.609   c3.261,3.261,7.533,4.892,11.804,4.892s8.544-1.631,11.804-4.892l10.457-10.457l10.457,10.457   c3.261,3.261,7.533,4.892,11.804,4.892s8.544-1.631,11.804-4.892c6.521-6.516,6.521-17.092,0-23.609L429.87,278.261z" fill="#ffe6b3"/><path d="M317.217,107.087v21.571c0,9.223,7.479,16.696,16.696,16.696c9.217,0,16.696-7.473,16.696-16.696   v-21.571l17.369-17.369c6.521-6.516,6.521-17.092,0-23.609c-6.521-6.521-17.087-6.521-23.609,0l-10.456,10.456l-10.457-10.457   c-6.521-6.521-17.087-6.521-23.609,0c-6.521,6.516-6.521,17.092,0,23.609L317.217,107.087z" fill="#ffe6b3"/></g></g><g transform="matrix(0.13206017017364502 -0.03538541495800018 0.03538541495800018 0.13206017017364502 132.13392639160156 150.2512664794922)" id="L1_1055"><path d="M456.343,333.904H55.657c-9.222,0-16.695-7.478-16.695-16.695V50.086  c0-9.217,7.473-16.695,16.695-16.695h400.685c9.222,0,16.695,7.478,16.695,16.695v267.123  C473.038,326.426,465.565,333.904,456.343,333.904z" fill="#e6f4ff"/><path d="M456.343,33.39H256v300.514h200.343c9.222,0,16.695-7.478,16.695-16.695V50.086  C473.038,40.869,465.565,33.39,456.343,33.39z" fill="#c2dff6"/><path d="M412.555,479.835l-139.86-56.98V350.6c0-9.217-7.473-16.695-16.695-16.695  s-16.695,7.478-16.695,16.695v72.256l-139.86,56.98c-8.538,3.478-12.641,13.217-9.162,21.761  c3.484,8.532,13.244,12.663,21.761,9.152l143.958-58.64l143.958,58.64c2.065,0.848,4.196,1.239,6.293,1.239  c6.587,0,12.825-3.923,15.466-10.391C425.197,493.052,421.093,483.313,412.555,479.835z" fill="#6a563d"/><path d="M399.958,510.748c2.065,0.848,4.196,1.239,6.293,1.239c6.587,0,12.825-3.923,15.466-10.391  c3.478-8.543-0.626-18.282-9.162-21.761l-139.86-56.98V350.6c0-9.217-7.473-16.695-16.695-16.695v118.203L399.958,510.748z" fill="#554431"/><path d="M489.733,66.781H22.267c-9.222,0-16.695-7.478-16.695-16.695v-33.39C5.572,7.478,13.044,0,22.267,0  h467.466c9.222,0,16.695,7.478,16.695,16.695v33.39C506.428,59.303,498.955,66.781,489.733,66.781z" fill="#6a563d"/><path d="M489.733,0H256v66.781h233.733c9.222,0,16.695-7.478,16.695-16.695v-33.39  C506.428,7.478,498.955,0,489.733,0z" fill="#554431"/><path d="M489.733,367.295H22.267c-9.222,0-16.695-7.478-16.695-16.695v-33.39  c0-9.217,7.473-16.695,16.695-16.695h467.466c9.222,0,16.695,7.478,16.695,16.695v33.39  C506.428,359.816,498.955,367.295,489.733,367.295z" fill="#6a563d"/><path d="M489.733,300.514H256v66.781h233.733c9.222,0,16.695-7.478,16.695-16.695v-33.39  C506.428,307.992,498.955,300.514,489.733,300.514z" fill="#554431"/></g></defs><g fi:class="KUsePattern"><pattern id="pattern_L1_1046" width="350" height="350" patternUnits="userSpaceOnUse"><use xlink:href="#L1_1046" x="-350" y="-350"/><use xlink:href="#L1_1046" x="0" y="-350"/><use xlink:href="#L1_1046" x="350" y="-350"/><use xlink:href="#L1_1046" x="-350" y="0"/><use xlink:href="#L1_1046" x="0" y="0"/><use xlink:href="#L1_1046" x="350" y="0"/><use xlink:href="#L1_1046" x="-350" y="350"/><use xlink:href="#L1_1046" x="0" y="350"/><use xlink:href="#L1_1046" x="350" y="350"/></pattern><rect x="0" y="0" width="100%" height="100%" fill="url(#pattern_L1_1046)"/></g><g fi:class="KUsePattern"><pattern id="pattern_L1_1047" width="350" height="350" patternUnits="userSpaceOnUse"><use xlink:href="#L1_1047" x="-350" y="-350"/><use xlink:href="#L1_1047" x="0" y="-350"/><use xlink:href="#L1_1047" x="350" y="-350"/><use xlink:href="#L1_1047" x="-350" y="0"/><use xlink:href="#L1_1047" x="0" y="0"/><use xlink:href="#L1_1047" x="350" y="0"/><use xlink:href="#L1_1047" x="-350" y="350"/><use xlink:href="#L1_1047" x="0" y="350"/><use xlink:href="#L1_1047" x="350" y="350"/></pattern><rect x="0" y="0" width="100%" height="100%" fill="url(#pattern_L1_1047)"/></g><g fi:class="KUsePattern"><pattern id="pattern_L1_1048" width="350" height="350" patternUnits="userSpaceOnUse"><use xlink:href="#L1_1048" x="-350" y="-350"/><use xlink:href="#L1_1048" x="0" y="-350"/><use xlink:href="#L1_1048" x="350" y="-350"/><use xlink:href="#L1_1048" x="-350" y="0"/><use xlink:href="#L1_1048" x="0" y="0"/><use xlink:href="#L1_1048" x="350" y="0"/><use xlink:href="#L1_1048" x="-350" y="350"/><use xlink:href="#L1_1048" x="0" y="350"/><use xlink:href="#L1_1048" x="350" y="350"/></pattern><rect x="0" y="0" width="100%" height="100%" fill="url(#pattern_L1_1048)"/></g><g fi:class="KUsePattern"><pattern id="pattern_L1_1049" width="350" height="350" patternUnits="userSpaceOnUse"><use xlink:href="#L1_1049" x="-350" y="-350"/><use xlink:href="#L1_1049" x="0" y="-350"/><use xlink:href="#L1_1049" x="350" y="-350"/><use xlink:href="#L1_1049" x="-350" y="0"/><use xlink:href="#L1_1049" x="0" y="0"/><use xlink:href="#L1_1049" x="350" y="0"/><use xlink:href="#L1_1049" x="-350" y="350"/><use xlink:href="#L1_1049" x="0" y="350"/><use xlink:href="#L1_1049" x="350" y="350"/></pattern><rect x="0" y="0" width="100%" height="100%" fill="url(#pattern_L1_1049)"/></g><g fi:class="KUsePattern"><pattern id="pattern_L1_1050" width="350" height="350" patternUnits="userSpaceOnUse"><use xlink:href="#L1_1050" x="-350" y="-350"/><use xlink:href="#L1_1050" x="0" y="-350"/><use xlink:href="#L1_1050" x="350" y="-350"/><use xlink:href="#L1_1050" x="-350" y="0"/><use xlink:href="#L1_1050" x="0" y="0"/><use xlink:href="#L1_1050" x="350" y="0"/><use xlink:href="#L1_1050" x="-350" y="350"/><use xlink:href="#L1_1050" x="0" y="350"/><use xlink:href="#L1_1050" x="350" y="350"/></pattern><rect x="0" y="0" width="100%" height="100%" fill="url(#pattern_L1_1050)"/></g><g fi:class="KUsePattern"><pattern id="pattern_L1_1051" width="350" height="350" patternUnits="userSpaceOnUse"><use xlink:href="#L1_1051" x="-350" y="-350"/><use xlink:href="#L1_1051" x="0" y="-350"/><use xlink:href="#L1_1051" x="350" y="-350"/><use xlink:href="#L1_1051" x="-350" y="0"/><use xlink:href="#L1_1051" x="0" y="0"/><use xlink:href="#L1_1051" x="350" y="0"/><use xlink:href="#L1_1051" x="-350" y="350"/><use xlink:href="#L1_1051" x="0" y="350"/><use xlink:href="#L1_1051" x="350" y="350"/></pattern><rect x="0" y="0" width="100%" height="100%" fill="url(#pattern_L1_1051)"/></g><g fi:class="KUsePattern"><pattern id="pattern_L1_1052" width="350" height="350" patternUnits="userSpaceOnUse"><use xlink:href="#L1_1052" x="-350" y="-350"/><use xlink:href="#L1_1052" x="0" y="-350"/><use xlink:href="#L1_1052" x="350" y="-350"/><use xlink:href="#L1_1052" x="-350" y="0"/><use xlink:href="#L1_1052" x="0" y="0"/><use xlink:href="#L1_1052" x="350" y="0"/><use xlink:href="#L1_1052" x="-350" y="350"/><use xlink:href="#L1_1052" x="0" y="350"/><use xlink:href="#L1_1052" x="350" y="350"/></pattern><rect x="0" y="0" width="100%" height="100%" fill="url(#pattern_L1_1052)"/></g><g fi:class="KUsePattern"><pattern id="pattern_L1_1053" width="350" height="350" patternUnits="userSpaceOnUse"><use xlink:href="#L1_1053" x="-350" y="-350"/><use xlink:href="#L1_1053" x="0" y="-350"/><use xlink:href="#L1_1053" x="350" y="-350"/><use xlink:href="#L1_1053" x="-350" y="0"/><use xlink:href="#L1_1053" x="0" y="0"/><use xlink:href="#L1_1053" x="350" y="0"/><use xlink:href="#L1_1053" x="-350" y="350"/><use xlink:href="#L1_1053" x="0" y="350"/><use xlink:href="#L1_1053" x="350" y="350"/></pattern><rect x="0" y="0" width="100%" height="100%" fill="url(#pattern_L1_1053)"/></g><g fi:class="KUsePattern"><pattern id="pattern_L1_1054" width="350" height="350" patternUnits="userSpaceOnUse"><use xlink:href="#L1_1054" x="-350" y="-350"/><use xlink:href="#L1_1054" x="0" y="-350"/><use xlink:href="#L1_1054" x="350" y="-350"/><use xlink:href="#L1_1054" x="-350" y="0"/><use xlink:href="#L1_1054" x="0" y="0"/><use xlink:href="#L1_1054" x="350" y="0"/><use xlink:href="#L1_1054" x="-350" y="350"/><use xlink:href="#L1_1054" x="0" y="350"/><use xlink:href="#L1_1054" x="350" y="350"/></pattern><rect x="0" y="0" width="100%" height="100%" fill="url(#pattern_L1_1054)"/></g><g fi:class="KUsePattern"><pattern id="pattern_L1_1055" width="350" height="350" patternUnits="userSpaceOnUse"><use xlink:href="#L1_1055" x="-350" y="-350"/><use xlink:href="#L1_1055" x="0" y="-350"/><use xlink:href="#L1_1055" x="350" y="-350"/><use xlink:href="#L1_1055" x="-350" y="0"/><use xlink:href="#L1_1055" x="0" y="0"/><use xlink:href="#L1_1055" x="350" y="0"/><use xlink:href="#L1_1055" x="-350" y="350"/><use xlink:href="#L1_1055" x="0" y="350"/><use xlink:href="#L1_1055" x="350" y="350"/></pattern><rect x="0" y="0" width="100%" height="100%" fill="url(#pattern_L1_1055)"/></g></svg>