<svg x="0" y="0" width="1080" height="540" viewBox="0 0 1080 540" xmlns="http://www.w3.org/2000/svg" xmlns:xlink="http://www.w3.org/1999/xlink" xmlns:fi="http://pattern.flaticon.com/"><rect x="0px" y="0px" width="100%" height="100%" opacity="1" fill="#ffffff"/><defs><g transform="matrix(0.16979165375232697 0.04549553617835045 -0.04549553617835045 0.16979165375232697 -31.819805145263672 -55.113521575927734)" id="L1_880"><path d="M256,512C114.839,512,0,397.156,0,256S114.839,0,256,0s256,114.844,256,256S397.161,512,256,512z" fill="#ffcd00"/><path d="M512,256C512,114.844,397.161,0,256,0v512C397.161,512,512,397.156,512,256z" fill="#ffa733"/><path d="M356.196,272.699c9.225,0,16.699-7.48,16.699-16.699s-7.475-16.699-16.699-16.699h-83.159  l29.688-66.797h53.471c9.225,0,16.699-7.48,16.699-16.699c0-9.219-7.475-16.699-16.699-16.699h-38.628l9.355-21.048  c3.745-8.425-0.049-18.298-8.474-22.049c-8.425-3.74-18.292,0.066-22.043,8.48l-15.386,34.617h-58.419  c-64.455,0-116.895,52.436-116.895,116.895c0,49.655,31.172,92.061,74.927,108.975l-17.824,40.102  c-3.745,8.425,0.049,18.298,8.474,22.049c2.207,0.979,4.507,1.435,6.773,1.435c6.398,0,12.502-3.696,15.27-9.915l20.529-46.192  c2.898,0.215,5.792,0.443,8.744,0.443h133.594c9.225,0,16.699-7.48,16.699-16.699s-7.475-16.699-16.699-16.699H228.505  l29.688-66.797h98.003V272.699z M222.601,172.504h43.575l-29.687,66.797h-95.701C148.545,201.233,182.277,172.504,222.601,172.504z   M194.213,334.422c-26.997-9.807-47.586-33.075-53.424-61.723h80.857L194.213,334.422z" fill="#ffffff"/><g><path d="M356.196,172.504c9.225,0,16.699-7.48,16.699-16.699c0-9.219-7.475-16.699-16.699-16.699h-38.628   l9.355-21.048c3.745-8.425-0.049-18.298-8.474-22.049c-8.425-3.74-18.292,0.066-22.043,8.48l-15.386,34.617H256v33.399h10.177   L256,195.399v82.235l2.193-4.936h98.003c9.225,0,16.699-7.48,16.699-16.699S365.42,239.3,356.196,239.3h-83.159l29.688-66.797   h53.471V172.504z" fill="#ffe6b3"/><path d="M372.895,356.196c0-9.219-7.475-16.699-16.699-16.699H256v33.399h100.196   C365.42,372.895,372.895,365.415,372.895,356.196z" fill="#ffe6b3"/></g></g><g transform="matrix(0.0390625 0 0 0.0390625 77.5 340)" id="L1_881"><path d="M256,512C114.839,512,0,397.161,0,256S114.839,0,256,0s256,114.839,256,256S397.161,512,256,512z" fill="#6dc82a"/><path d="M512,256C512,114.839,397.161,0,256,0v512C397.161,512,512,397.161,512,256z" fill="#61b325"/><path d="M389.594,272.699H122.406c-9.225,0-16.699-7.475-16.699-16.699c0-9.225,7.475-16.699,16.699-16.699  h267.189c9.225,0,16.699,7.475,16.699,16.699C406.294,265.225,398.819,272.699,389.594,272.699z" fill="#ffffff"/><path d="M389.594,239.301H256v33.399h133.594c9.225,0,16.699-7.475,16.699-16.699  C406.294,246.775,398.819,239.301,389.594,239.301z" fill="#ffeb99"/></g><g transform="matrix(0.078125 0 0 0.078125 67.5 67.5)" id="L1_882"><path d="M256,512c-68.48,0-132.797-26.6-181.096-74.904C26.6,388.797,0,324.48,0,256  c0-68.486,26.6-132.797,74.904-181.096C123.204,26.6,187.515,0,256,0c68.48,0,132.797,26.6,181.096,74.904  C485.4,123.203,512,187.52,512,256c0,68.486-26.6,132.797-74.904,181.096l0,0l0,0C388.797,485.4,324.486,512,256,512z" fill="#00d7df"/><path d="M437.096,437.096C485.4,388.797,512,324.486,512,256c0-68.48-26.6-132.797-74.904-181.096  C388.797,26.6,324.48,0,256,0v512C324.486,512,388.797,485.4,437.096,437.096z" fill="#00b6bd"/><path d="M385.943,126.056c-6.526-6.526-17.099-6.526-23.624,0l-36.275,36.275  c-20.083-15.065-44.419-23.219-70.044-23.219c-31.281,0-60.648,12.143-82.695,34.19c-41.585,41.59-45.235,106.958-10.964,152.73  l-36.284,36.284c-6.526,6.52-6.526,17.103,0,23.624c3.263,3.263,7.538,4.895,11.812,4.895c4.274,0,8.549-1.632,11.812-4.895  l36.275-36.275c20.083,15.065,44.419,23.219,70.044,23.219c31.281,0,60.648-12.143,82.695-34.19  c41.585-41.59,45.235-106.958,10.964-152.73l36.284-36.284C392.469,143.161,392.469,132.578,385.943,126.056z M196.929,196.929  c15.739-15.733,36.714-24.402,59.071-24.402c16.656,0,32.542,4.818,46.071,13.777L186.307,302.07  C164.869,269.651,168.409,225.455,196.929,196.929z M315.071,315.071c-15.739,15.733-36.714,24.402-59.071,24.402  c-16.656,0-32.542-4.818-46.071-13.777l115.764-115.764C347.132,242.349,343.592,286.545,315.071,315.071z" fill="#ffffff"/><path d="M385.943,126.056c-6.526-6.526-17.099-6.526-23.624,0l-36.275,36.275  c-20.083-15.065-44.419-23.219-70.044-23.219v33.413c16.656,0,32.542,4.818,46.071,13.777L256,232.375v47.248l69.694-69.694  c21.438,32.418,17.898,76.615-10.622,105.141c-15.739,15.733-36.714,24.402-59.071,24.402v33.413  c31.281,0,60.648-12.143,82.695-34.19c41.585-41.59,45.235-106.958,10.964-152.73l36.284-36.284  C392.469,143.161,392.469,132.578,385.943,126.056z" fill="#ffe6b3"/></g><g transform="matrix(0.078125 0 0 0.078125 242.5 67.5)" id="L1_883"><path d="M256,512C114.839,512,0,397.156,0,256S114.839,0,256,0s256,114.844,256,256S397.161,512,256,512z" fill="#6dc82a"/><path d="M512,256C512,114.844,397.161,0,256,0v512C397.161,512,512,397.156,512,256z" fill="#61b325"/><path d="M189.419,404.853c-6.224,0-11.91-3.511-14.693-9.078l-62.258-124.517H89.223  c-9.072,0-16.428-7.35-16.428-16.428s7.354-16.428,16.428-16.428h33.399c6.224,0,11.91,3.511,14.693,9.078l52.104,104.208  l107.768-215.537c2.783-5.566,8.469-9.078,14.693-9.078h77.93c9.072,0,16.428,7.35,16.428,16.428s-7.354,16.428-16.428,16.428  h-67.776L204.112,395.775C201.329,401.342,195.643,404.853,189.419,404.853z" fill="#ffffff"/><path d="M389.81,127.075h-77.93c-6.224,0-11.91,3.511-14.693,9.078l-40.971,81.942v73.472l65.819-131.637  h67.776c9.072,0,16.428-7.35,16.428-16.428C406.238,134.425,398.884,127.075,389.81,127.075z" fill="#ffe6b3"/></g><g transform="matrix(0.13206017017364502 -0.03538541495800018 0.03538541495800018 0.13206017017364502 132.13392639160156 150.2512664794922)" id="L1_884"><path d="M256,512C114.839,512,0,397.161,0,256S114.839,0,256,0s256,114.839,256,256S397.161,512,256,512z" fill="#00d7df"/><path d="M512,256C512,114.839,397.161,0,256,0v512C397.161,512,512,397.161,512,256z" fill="#00b6bd"/><path d="M356.196,339.496c-9.208,0-16.699-7.491-16.699-16.699V172.504h16.699  c9.225,0,16.699-7.475,16.699-16.699c0-9.225-7.475-16.699-16.699-16.699H256H155.804c-9.225,0-16.699,7.475-16.699,16.699  c0,9.225,7.475,16.699,16.699,16.699h16.699v183.692c0,9.225,7.475,16.699,16.699,16.699c9.225,0,16.699-7.475,16.699-16.699  V172.504H256h50.098v150.294c0,27.625,22.473,50.098,50.098,50.098c9.225,0,16.699-7.475,16.699-16.699  C372.895,346.971,365.42,339.496,356.196,339.496z" fill="#ffffff"/><path d="M356.196,339.496c-9.208,0-16.699-7.491-16.699-16.699V172.504h16.699  c9.225,0,16.699-7.475,16.699-16.699c0-9.225-7.475-16.699-16.699-16.699H256v33.399h50.098v150.294  c0,27.625,22.473,50.098,50.098,50.098c9.225,0,16.699-7.475,16.699-16.699C372.895,346.971,365.42,339.496,356.196,339.496z" fill="#ffe6b3"/></g><g transform="matrix(0.09765625 0 0 0.09765625 62.5 237.5)" id="L1_885"><path d="M272.696,414.698v-52.959h-33.391v52.959c-19.433,6.892-33.391,25.449-33.391,47.215  C205.913,489.532,228.381,512,256,512s50.087-22.468,50.087-50.087C306.087,440.146,292.128,421.589,272.696,414.698z M256,478.609  c-9.206,0-16.696-7.49-16.696-16.696c0-9.206,7.49-16.696,16.696-16.696s16.696,7.49,16.696,16.696  C272.696,471.119,265.206,478.609,256,478.609z" fill="#6a563d"/><path d="M272.696,414.698v-52.959H256v50.087v33.391c9.206,0,16.696,7.49,16.696,16.696  c0,9.206-7.49,16.696-16.696,16.696V512c27.619,0,50.087-22.468,50.087-50.087C306.087,440.146,292.128,421.589,272.696,414.698z" fill="#554431"/><path d="M456.348,378.435H55.652c-9.223,0-16.696-7.479-16.696-16.696V50.087  c0-9.217,7.473-16.696,16.696-16.696h400.696c9.223,0,16.696,7.479,16.696,16.696v311.652  C473.043,370.956,465.57,378.435,456.348,378.435z" fill="#e6f4ff"/><path d="M456.348,33.391H256v345.043h200.348c9.223,0,16.696-7.479,16.696-16.696V50.087  C473.043,40.87,465.57,33.391,456.348,33.391z" fill="#c2dff6"/><path d="M489.739,66.783H22.261c-9.223,0-16.696-7.479-16.696-16.696V16.696C5.565,7.479,13.038,0,22.261,0  h467.478c9.223,0,16.696,7.479,16.696,16.696v33.391C506.435,59.304,498.962,66.783,489.739,66.783z" fill="#6a563d"/><path d="M489.739,0H256v66.783h233.739c9.223,0,16.696-7.479,16.696-16.696V16.696  C506.435,7.479,498.962,0,489.739,0z" fill="#554431"/><path d="M256,122.435c-52.168,0-94.609,42.446-94.609,94.609s42.44,94.609,94.609,94.609  s94.609-42.446,94.609-94.609S308.168,122.435,256,122.435z M272.696,158.16c20.34,5.762,36.402,21.81,42.188,42.188h-42.188V158.16  z M256,278.261c-33.755,0-61.217-27.468-61.217-61.217c0-27.963,18.858-51.595,44.522-58.883v58.883  c0,9.217,7.473,16.696,16.696,16.696h58.883C307.595,259.399,283.966,278.261,256,278.261z" fill="#00d7df"/><path d="M256,122.435v33.391v77.913h58.883c-7.288,25.66-30.917,44.522-58.883,44.522v33.391  c52.168,0,94.609-42.446,94.609-94.609S308.168,122.435,256,122.435z M272.696,158.16c20.34,5.762,36.402,21.81,42.188,42.188  h-42.188V158.16z" fill="#00b6bd"/></g><g transform="matrix(0.07812469452619553 0 0 0.07812469452619553 155 330)" id="L1_886"><path d="M290.911,300.178h-0.098c-9.216,0-18.465-2.69-26.725-7.781l-1.642-1.011  c-2.391-1.472-4.488-2.799-6.445-3.798c-2.054,1.059-4.151,2.391-6.369,3.761l-1.642,1.022  c-18.715,11.504-40.886,10.059-60.286-3.712c-11.205-8.01-21.791-20.019-31.497-35.725c-7.542-12.26-14.151-26.23-18.607-39.37  c-5.88-17.291-8.858-33.974-8.858-49.593c-0.055-29.725,11.042-56.422,31.235-75.159c15.02-13.923,35.659-21.649,58.113-21.77  c4.249,0,8.271,0.43,12.021,1.272c9.738,2.19,17.542,6.304,22.703,9.026c1.239,0.652,2.304,1.076,3.206,1.277  c0.967-0.207,1.847-0.592,2.141-0.745c6.413-3.374,14.042-7.38,23.704-9.559c3.772-0.842,7.793-1.272,11.955-1.272  c22.552,0.119,43.191,7.847,58.2,21.764c20.215,18.754,31.301,45.457,31.235,75.197c0,15.612-2.978,32.3-8.847,49.57  c-4.477,13.146-11.086,27.111-18.607,39.338c-9.716,15.738-20.302,27.742-31.463,35.719  C313.572,296.292,302.334,300.172,290.911,300.178z" fill="#ff5023"/><path d="M293.823,67.042c-4.162,0-8.184,0.43-11.955,1.272c-9.662,2.179-17.291,6.184-23.704,9.559  c-0.29,0.15-1.162,0.53-2.119,0.739v209.002c1.945,0.997,4.027,2.31,6.401,3.773l1.642,1.011c8.26,5.092,17.508,7.781,26.725,7.781  h0.098c11.423-0.006,22.66-3.885,33.431-11.548c11.161-7.977,21.747-19.981,31.463-35.719c7.521-12.226,14.128-26.192,18.607-39.338  c5.868-17.27,8.847-33.958,8.847-49.57c0.066-29.741-11.02-56.445-31.235-75.197C337.014,74.89,316.375,67.162,293.823,67.042z" fill="#cd2a00"/><path d="M256.045,55.706c0,0-0.154-1.892,0.056-4.727c0.178-2.865,0.733-6.656,1.83-10.777  c2.205-8.229,7.192-17.152,14.137-24.12c6.941-6.97,15.846-11.977,24.087-14.168c4.123-1.094,7.924-1.639,10.796-1.811  c2.839-0.204,4.74-0.042,4.74-0.042s0.161,1.9-0.042,4.739c-0.171,2.872-0.718,6.674-1.811,10.797  c-2.192,8.241-7.199,17.146-14.17,24.088c-6.967,6.943-15.891,11.932-24.119,14.136c-4.12,1.096-7.912,1.652-10.777,1.83  C257.938,55.86,256.045,55.706,256.045,55.706z" fill="#61b325"/><path d="M334.624,416.73c-6.521-6.521-17.085-6.521-23.606,0l-38.279,38.279V350.629  c0-9.222-7.478-16.694-16.694-16.694s-16.694,7.472-16.694,16.694v104.379l-38.279-38.279c-6.521-6.521-17.085-6.521-23.606,0  c-6.521,6.515-6.521,17.09,0,23.606l66.765,66.765c1.55,1.552,3.41,2.788,5.471,3.637c0.081,0.032,0.167,0.045,0.25,0.078  c1.892,0.743,3.937,1.186,6.092,1.186s4.2-0.443,6.092-1.186c0.082-0.032,0.168-0.045,0.25-0.078  c2.061-0.849,3.921-2.084,5.471-3.637l66.765-66.765C341.144,433.82,341.144,423.245,334.624,416.73z" fill="#aa6100"/><path d="M262.137,510.815c0.082-0.032,0.168-0.045,0.25-0.078c2.061-0.849,3.921-2.084,5.471-3.637  l66.765-66.765c6.521-6.515,6.521-17.09,0-23.606c-6.521-6.521-17.085-6.521-23.606,0l-38.279,38.279V350.629  c0-9.222-7.478-16.694-16.694-16.694v178.066C258.2,512.001,260.247,511.558,262.137,510.815z" fill="#884e00"/></g><g transform="matrix(0.0390625 0 0 0.0390625 252.5 340)" id="L1_887"><path d="M489.739,512H22.261c-9.217,0-16.696-7.473-16.696-16.696V16.696C5.565,7.473,13.044,0,22.261,0  h467.478c9.217,0,16.696,7.473,16.696,16.696v478.609C506.435,504.527,498.956,512,489.739,512z" fill="#00d7df"/><path d="M489.739,0H256v512h233.739c9.217,0,16.696-7.473,16.696-16.696V16.696  C506.435,7.473,498.956,0,489.739,0z" fill="#00b6bd"/><path d="M450.783,361.739c0-4.625-1.88-8.805-4.919-11.828l-0.006-0.008l-50.609-50.609  c-6.521-6.521-17.087-6.521-23.609,0c-6.521,6.516-6.521,17.092,0,23.609l22.142,22.141H272.696v-34.888  c68.858-11.271,122.435-91.081,122.435-187.72c0-9.223-7.479-16.696-16.696-16.696c-9.217,0-16.696,7.473-16.696,16.696  c0,77.532-38.663,141.833-89.043,153.69V118.217l22.108,22.108c3.261,3.261,7.533,4.892,11.804,4.892s8.544-1.631,11.804-4.892  c6.521-6.516,6.521-17.092,0-23.609l-50.609-50.609c-6.521-6.521-17.087-6.521-23.609,0l-50.087,50.087  c-6.521,6.516-6.521,17.092,0,23.609c6.521,6.521,17.087,6.521,23.609,0l21.589-21.586v157.907  c-50.381-11.857-89.043-76.158-89.043-153.69c0-9.223-7.479-16.696-16.696-16.696s-16.696,7.473-16.696,16.696  c0,96.639,53.576,176.45,122.435,187.72v34.888h-139.13c-9.217,0-16.696,7.473-16.696,16.696s7.479,16.696,16.696,16.696h139.13  v50.087c0,9.223,7.479,16.696,16.696,16.696s16.696-7.473,16.696-16.696v-50.087h121.021l-21.554,21.554  c-6.521,6.516-6.521,17.092,0,23.609c3.261,3.261,7.533,4.892,11.804,4.892s8.544-1.631,11.804-4.892l49.734-49.735  C448.739,370.818,450.783,366.53,450.783,361.739z" fill="#ffffff"/><path d="M272.696,428.522v-50.087h121.021l-21.554,21.554c-6.521,6.516-6.521,17.092,0,23.609  c3.261,3.261,7.533,4.892,11.804,4.892s8.544-1.631,11.804-4.892l49.734-49.735c3.234-3.044,5.278-7.333,5.278-12.123  c0-4.625-1.88-8.805-4.919-11.828l-0.006-0.008l-50.609-50.609c-6.521-6.521-17.087-6.521-23.609,0  c-6.521,6.516-6.521,17.092,0,23.609l22.142,22.141H272.696v-34.888c68.858-11.271,122.435-91.081,122.435-187.72  c0-9.223-7.479-16.696-16.696-16.696c-9.217,0-16.696,7.473-16.696,16.696c0,77.532-38.663,141.833-89.043,153.69V118.217  l22.108,22.108c3.261,3.261,7.533,4.892,11.804,4.892s8.544-1.631,11.804-4.892c6.521-6.516,6.521-17.092,0-23.609l-50.609-50.609  c-3.259-3.26-7.531-4.891-11.803-4.891v384C265.217,445.217,272.696,437.744,272.696,428.522z" fill="#ffe6b3"/></g><g transform="matrix(0.13671875 0 0 0.13671875 315 140)" id="L1_888"><path d="M495.304,233.739H294.957c-9.223,0-16.696-7.479-16.696-16.696V16.696  C278.261,7.479,285.734,0,294.957,0C414.635,0,512,97.369,512,217.043C512,226.261,504.527,233.739,495.304,233.739z" fill="#00d7df"/><path d="M294.957,233.739h200.348c9.223,0,16.696-7.479,16.696-16.696c0-59.837-24.342-114.098-63.644-153.4  L283.153,228.847C286.172,231.869,290.345,233.739,294.957,233.739z" fill="#00b6bd"/><path d="M217.043,512C97.365,512,0,414.631,0,294.957S97.365,77.913,217.043,77.913  c9.223,0,16.696,7.479,16.696,16.696v183.652h183.652c9.223,0,16.696,7.479,16.696,16.696C434.087,414.631,336.722,512,217.043,512z  " fill="#ffcd00"/><path d="M217.043,512c119.679,0,217.043-97.369,217.043-217.043c0-9.217-7.473-16.696-16.696-16.696H233.739  L63.644,448.356C102.944,487.658,157.204,512,217.043,512z" fill="#ffa733"/></g><g transform="matrix(0.17578125 0 0 0.17578125 217.5 217.5)" id="L1_889"><path d="M256,512C114.839,512,0,397.161,0,256S114.839,0,256,0s256,114.839,256,256S397.161,512,256,512z" fill="#00d7df"/><path d="M512,256C512,114.839,397.161,0,256,0v512C397.161,512,512,397.161,512,256z" fill="#00b6bd"/><path d="M389.594,283.832H259.43l29.688-66.797h100.475c9.225,0,16.699-7.475,16.699-16.699  c0-9.225-7.475-16.699-16.699-16.699H303.96l34.094-76.712c3.745-8.431-0.049-18.298-8.474-22.043  c-8.425-3.734-18.292,0.06-22.043,8.474l-40.125,90.281H122.406c-9.225,0-16.699,7.475-16.699,16.699  c0,9.225,7.475,16.699,16.699,16.699H252.57l-29.688,66.797H122.406c-9.225,0-16.699,7.475-16.699,16.699  c0,9.225,7.475,16.699,16.699,16.699h85.633l-34.094,76.712c-3.745,8.431,0.049,18.298,8.474,22.043  c2.207,0.979,4.507,1.446,6.773,1.446c6.398,0,12.502-3.702,15.27-9.921l40.125-90.281h145.008c9.225,0,16.699-7.475,16.699-16.699  C406.294,291.307,398.819,283.832,389.594,283.832z" fill="#ffffff"/><path d="M389.594,217.035c9.225,0,16.699-7.475,16.699-16.699c0-9.225-7.475-16.699-16.699-16.699h-85.633  l34.094-76.712c3.745-8.431-0.049-18.298-8.474-22.043c-8.425-3.734-18.292,0.06-22.043,8.474l-40.125,90.281H256v133.594h133.594  c9.225,0,16.699-7.475,16.699-16.699c0-9.225-7.475-16.699-16.699-16.699H259.43l29.688-66.797L389.594,217.035L389.594,217.035z" fill="#ffe6b3"/></g></defs><g fi:class="KUsePattern"><pattern id="pattern_L1_880" width="350" height="350" patternUnits="userSpaceOnUse"><use xlink:href="#L1_880" x="-350" y="-350"/><use xlink:href="#L1_880" x="0" y="-350"/><use xlink:href="#L1_880" x="350" y="-350"/><use xlink:href="#L1_880" x="-350" y="0"/><use xlink:href="#L1_880" x="0" y="0"/><use xlink:href="#L1_880" x="350" y="0"/><use xlink:href="#L1_880" x="-350" y="350"/><use xlink:href="#L1_880" x="0" y="350"/><use xlink:href="#L1_880" x="350" y="350"/></pattern><rect x="0" y="0" width="100%" height="100%" fill="url(#pattern_L1_880)"/></g><g fi:class="KUsePattern"><pattern id="pattern_L1_881" width="350" height="350" patternUnits="userSpaceOnUse"><use xlink:href="#L1_881" x="-350" y="-350"/><use xlink:href="#L1_881" x="0" y="-350"/><use xlink:href="#L1_881" x="350" y="-350"/><use xlink:href="#L1_881" x="-350" y="0"/><use xlink:href="#L1_881" x="0" y="0"/><use xlink:href="#L1_881" x="350" y="0"/><use xlink:href="#L1_881" x="-350" y="350"/><use xlink:href="#L1_881" x="0" y="350"/><use xlink:href="#L1_881" x="350" y="350"/></pattern><rect x="0" y="0" width="100%" height="100%" fill="url(#pattern_L1_881)"/></g><g fi:class="KUsePattern"><pattern id="pattern_L1_882" width="350" height="350" patternUnits="userSpaceOnUse"><use xlink:href="#L1_882" x="-350" y="-350"/><use xlink:href="#L1_882" x="0" y="-350"/><use xlink:href="#L1_882" x="350" y="-350"/><use xlink:href="#L1_882" x="-350" y="0"/><use xlink:href="#L1_882" x="0" y="0"/><use xlink:href="#L1_882" x="350" y="0"/><use xlink:href="#L1_882" x="-350" y="350"/><use xlink:href="#L1_882" x="0" y="350"/><use xlink:href="#L1_882" x="350" y="350"/></pattern><rect x="0" y="0" width="100%" height="100%" fill="url(#pattern_L1_882)"/></g><g fi:class="KUsePattern"><pattern id="pattern_L1_883" width="350" height="350" patternUnits="userSpaceOnUse"><use xlink:href="#L1_883" x="-350" y="-350"/><use xlink:href="#L1_883" x="0" y="-350"/><use xlink:href="#L1_883" x="350" y="-350"/><use xlink:href="#L1_883" x="-350" y="0"/><use xlink:href="#L1_883" x="0" y="0"/><use xlink:href="#L1_883" x="350" y="0"/><use xlink:href="#L1_883" x="-350" y="350"/><use xlink:href="#L1_883" x="0" y="350"/><use xlink:href="#L1_883" x="350" y="350"/></pattern><rect x="0" y="0" width="100%" height="100%" fill="url(#pattern_L1_883)"/></g><g fi:class="KUsePattern"><pattern id="pattern_L1_884" width="350" height="350" patternUnits="userSpaceOnUse"><use xlink:href="#L1_884" x="-350" y="-350"/><use xlink:href="#L1_884" x="0" y="-350"/><use xlink:href="#L1_884" x="350" y="-350"/><use xlink:href="#L1_884" x="-350" y="0"/><use xlink:href="#L1_884" x="0" y="0"/><use xlink:href="#L1_884" x="350" y="0"/><use xlink:href="#L1_884" x="-350" y="350"/><use xlink:href="#L1_884" x="0" y="350"/><use xlink:href="#L1_884" x="350" y="350"/></pattern><rect x="0" y="0" width="100%" height="100%" fill="url(#pattern_L1_884)"/></g><g fi:class="KUsePattern"><pattern id="pattern_L1_885" width="350" height="350" patternUnits="userSpaceOnUse"><use xlink:href="#L1_885" x="-350" y="-350"/><use xlink:href="#L1_885" x="0" y="-350"/><use xlink:href="#L1_885" x="350" y="-350"/><use xlink:href="#L1_885" x="-350" y="0"/><use xlink:href="#L1_885" x="0" y="0"/><use xlink:href="#L1_885" x="350" y="0"/><use xlink:href="#L1_885" x="-350" y="350"/><use xlink:href="#L1_885" x="0" y="350"/><use xlink:href="#L1_885" x="350" y="350"/></pattern><rect x="0" y="0" width="100%" height="100%" fill="url(#pattern_L1_885)"/></g><g fi:class="KUsePattern"><pattern id="pattern_L1_886" width="350" height="350" patternUnits="userSpaceOnUse"><use xlink:href="#L1_886" x="-350" y="-350"/><use xlink:href="#L1_886" x="0" y="-350"/><use xlink:href="#L1_886" x="350" y="-350"/><use xlink:href="#L1_886" x="-350" y="0"/><use xlink:href="#L1_886" x="0" y="0"/><use xlink:href="#L1_886" x="350" y="0"/><use xlink:href="#L1_886" x="-350" y="350"/><use xlink:href="#L1_886" x="0" y="350"/><use xlink:href="#L1_886" x="350" y="350"/></pattern><rect x="0" y="0" width="100%" height="100%" fill="url(#pattern_L1_886)"/></g><g fi:class="KUsePattern"><pattern id="pattern_L1_887" width="350" height="350" patternUnits="userSpaceOnUse"><use xlink:href="#L1_887" x="-350" y="-350"/><use xlink:href="#L1_887" x="0" y="-350"/><use xlink:href="#L1_887" x="350" y="-350"/><use xlink:href="#L1_887" x="-350" y="0"/><use xlink:href="#L1_887" x="0" y="0"/><use xlink:href="#L1_887" x="350" y="0"/><use xlink:href="#L1_887" x="-350" y="350"/><use xlink:href="#L1_887" x="0" y="350"/><use xlink:href="#L1_887" x="350" y="350"/></pattern><rect x="0" y="0" width="100%" height="100%" fill="url(#pattern_L1_887)"/></g><g fi:class="KUsePattern"><pattern id="pattern_L1_888" width="350" height="350" patternUnits="userSpaceOnUse"><use xlink:href="#L1_888" x="-350" y="-350"/><use xlink:href="#L1_888" x="0" y="-350"/><use xlink:href="#L1_888" x="350" y="-350"/><use xlink:href="#L1_888" x="-350" y="0"/><use xlink:href="#L1_888" x="0" y="0"/><use xlink:href="#L1_888" x="350" y="0"/><use xlink:href="#L1_888" x="-350" y="350"/><use xlink:href="#L1_888" x="0" y="350"/><use xlink:href="#L1_888" x="350" y="350"/></pattern><rect x="0" y="0" width="100%" height="100%" fill="url(#pattern_L1_888)"/></g><g fi:class="KUsePattern"><pattern id="pattern_L1_889" width="350" height="350" patternUnits="userSpaceOnUse"><use xlink:href="#L1_889" x="-350" y="-350"/><use xlink:href="#L1_889" x="0" y="-350"/><use xlink:href="#L1_889" x="350" y="-350"/><use xlink:href="#L1_889" x="-350" y="0"/><use xlink:href="#L1_889" x="0" y="0"/><use xlink:href="#L1_889" x="350" y="0"/><use xlink:href="#L1_889" x="-350" y="350"/><use xlink:href="#L1_889" x="0" y="350"/><use xlink:href="#L1_889" x="350" y="350"/></pattern><rect x="0" y="0" width="100%" height="100%" fill="url(#pattern_L1_889)"/></g></svg>